%TF.GenerationSoftware,KiCad,Pcbnew,7.0.9-7.0.9~ubuntu22.04.1*%
%TF.CreationDate,2023-12-14T18:44:14-05:00*%
%TF.ProjectId,macrocoaster_v2,6d616372-6f63-46f6-9173-7465725f7632,rev?*%
%TF.SameCoordinates,Original*%
%TF.FileFunction,Soldermask,Top*%
%TF.FilePolarity,Negative*%
%FSLAX46Y46*%
G04 Gerber Fmt 4.6, Leading zero omitted, Abs format (unit mm)*
G04 Created by KiCad (PCBNEW 7.0.9-7.0.9~ubuntu22.04.1) date 2023-12-14 18:44:14*
%MOMM*%
%LPD*%
G01*
G04 APERTURE LIST*
%ADD10R,1.752600X1.752600*%
%ADD11R,3.250000X2.000000*%
%ADD12C,1.752600*%
%ADD13R,2.000000X3.250000*%
%ADD14O,1.600000X2.000000*%
%ADD15C,1.750000*%
%ADD16C,4.000000*%
%ADD17C,2.500000*%
%ADD18C,1.600000*%
%ADD19R,1.200000X1.200000*%
%ADD20R,1.600000X1.600000*%
%ADD21R,2.000000X2.000000*%
%ADD22C,2.000000*%
%ADD23R,3.200000X2.000000*%
G04 APERTURE END LIST*
D10*
%TO.C,U1*%
X61250000Y-45920000D03*
D11*
X59472000Y-45920000D03*
D12*
X61250000Y-48460000D03*
D11*
X59472000Y-48460000D03*
D12*
X61250000Y-51000000D03*
D11*
X59472000Y-51000000D03*
D12*
X61250000Y-53540000D03*
D11*
X59472000Y-53540000D03*
D12*
X61250000Y-56080000D03*
D11*
X59472000Y-56080000D03*
D12*
X61250000Y-58620000D03*
D11*
X59472000Y-58620000D03*
D12*
X61250000Y-61160000D03*
D11*
X59472000Y-61160000D03*
D12*
X61250000Y-63700000D03*
D11*
X59472000Y-63700000D03*
D12*
X61250000Y-66240000D03*
D11*
X59472000Y-66240000D03*
D12*
X61250000Y-68780000D03*
D11*
X59472000Y-68780000D03*
D12*
X61250000Y-71320000D03*
D11*
X59472000Y-71320000D03*
D12*
X61478600Y-73860000D03*
D11*
X59472000Y-73860000D03*
X78268000Y-73860000D03*
D12*
X76490000Y-73860000D03*
D11*
X78268000Y-71320000D03*
D12*
X76490000Y-71320000D03*
D11*
X78268000Y-68780000D03*
D12*
X76490000Y-68780000D03*
D11*
X78268000Y-66240000D03*
D12*
X76490000Y-66240000D03*
D11*
X78268000Y-63700000D03*
D12*
X76490000Y-63700000D03*
D11*
X78268000Y-61160000D03*
D12*
X76490000Y-61160000D03*
D11*
X78268000Y-58620000D03*
D12*
X76490000Y-58620000D03*
D11*
X78268000Y-56080000D03*
D12*
X76490000Y-56080000D03*
D11*
X78268000Y-53540000D03*
D12*
X76490000Y-53540000D03*
D11*
X78268000Y-51000000D03*
D12*
X76490000Y-51000000D03*
D11*
X78268000Y-48460000D03*
D12*
X76490000Y-48460000D03*
D11*
X78268000Y-45920000D03*
D12*
X76490000Y-45920000D03*
X63790000Y-73860000D03*
D13*
X63790000Y-75765000D03*
D12*
X66330000Y-73860000D03*
D13*
X66330000Y-75765000D03*
D12*
X68870000Y-73860000D03*
D13*
X68870000Y-75765000D03*
D12*
X71410000Y-73860000D03*
D13*
X71410000Y-75765000D03*
D12*
X73950000Y-73860000D03*
D13*
X73950000Y-75765000D03*
%TD*%
D14*
%TO.C,Brd1*%
X65170000Y-80000000D03*
X67710000Y-80000000D03*
X72790000Y-80000000D03*
X70250000Y-80000000D03*
%TD*%
D15*
%TO.C,SW2*%
X111420000Y-67750000D03*
D16*
X116500000Y-67750000D03*
D15*
X121580000Y-67750000D03*
D17*
X112690000Y-65210000D03*
X119040000Y-62670000D03*
%TD*%
D15*
%TO.C,SW3*%
X91920000Y-87500000D03*
D16*
X97000000Y-87500000D03*
D15*
X102080000Y-87500000D03*
D17*
X93190000Y-84960000D03*
X99540000Y-82420000D03*
%TD*%
D18*
%TO.C,D8*%
X136000000Y-54487500D03*
D19*
X136000000Y-52162500D03*
X136000000Y-49012500D03*
D20*
X136000000Y-46687500D03*
%TD*%
%TO.C,D2*%
X123750000Y-45100000D03*
D19*
X123750000Y-47425000D03*
X123750000Y-50575000D03*
D18*
X123750000Y-52900000D03*
%TD*%
D15*
%TO.C,SW11*%
X130920000Y-127000000D03*
D16*
X136000000Y-127000000D03*
D15*
X141080000Y-127000000D03*
D17*
X132190000Y-124460000D03*
X138540000Y-121920000D03*
%TD*%
D20*
%TO.C,D11*%
X131916667Y-48275000D03*
D19*
X131916667Y-50600000D03*
X131916667Y-53750000D03*
D18*
X131916667Y-56075000D03*
%TD*%
D17*
%TO.C,SW4*%
X119040000Y-82420000D03*
X112690000Y-84960000D03*
D15*
X121580000Y-87500000D03*
D16*
X116500000Y-87500000D03*
D15*
X111420000Y-87500000D03*
%TD*%
D21*
%TO.C,SW13*%
X128750000Y-65250000D03*
D22*
X128750000Y-70250000D03*
X128750000Y-67750000D03*
D23*
X136250000Y-62150000D03*
X136250000Y-73350000D03*
D22*
X143250000Y-70250000D03*
X143250000Y-65250000D03*
%TD*%
D15*
%TO.C,SW5*%
X130920000Y-87500000D03*
D16*
X136000000Y-87500000D03*
D15*
X141080000Y-87500000D03*
D17*
X132190000Y-84960000D03*
X138540000Y-82420000D03*
%TD*%
D20*
%TO.C,D1*%
X103916667Y-45100000D03*
D19*
X103916667Y-47425000D03*
X103916667Y-50575000D03*
D18*
X103916667Y-52900000D03*
%TD*%
D17*
%TO.C,SW8*%
X138540000Y-102170000D03*
X132190000Y-104710000D03*
D15*
X141080000Y-107250000D03*
D16*
X136000000Y-107250000D03*
D15*
X130920000Y-107250000D03*
%TD*%
D20*
%TO.C,D7*%
X115583333Y-47100000D03*
D19*
X115583333Y-49425000D03*
X115583333Y-52575000D03*
D18*
X115583333Y-54900000D03*
%TD*%
D15*
%TO.C,SW10*%
X111420000Y-127000000D03*
D16*
X116500000Y-127000000D03*
D15*
X121580000Y-127000000D03*
D17*
X112690000Y-124460000D03*
X119040000Y-121920000D03*
%TD*%
%TO.C,SW9*%
X99540000Y-121920000D03*
X93190000Y-124460000D03*
D15*
X102080000Y-127000000D03*
D16*
X97000000Y-127000000D03*
D15*
X91920000Y-127000000D03*
%TD*%
D20*
%TO.C,D4*%
X119666666Y-46100000D03*
D19*
X119666666Y-48425000D03*
X119666666Y-51575000D03*
D18*
X119666666Y-53900000D03*
%TD*%
D21*
%TO.C,SW14*%
X61620000Y-94750000D03*
D22*
X61620000Y-99750000D03*
X61620000Y-97250000D03*
D23*
X69120000Y-91650000D03*
X69120000Y-102850000D03*
D22*
X76120000Y-99750000D03*
X76120000Y-94750000D03*
%TD*%
D15*
%TO.C,SW7*%
X111420000Y-107250000D03*
D16*
X116500000Y-107250000D03*
D15*
X121580000Y-107250000D03*
D17*
X112690000Y-104710000D03*
X119040000Y-102170000D03*
%TD*%
D20*
%TO.C,D5*%
X140083334Y-45100000D03*
D19*
X140083334Y-47425000D03*
X140083334Y-50575000D03*
D18*
X140083334Y-52900000D03*
%TD*%
%TO.C,D3*%
X99833333Y-53900000D03*
D19*
X99833333Y-51575000D03*
X99833333Y-48425000D03*
D20*
X99833333Y-46100000D03*
%TD*%
%TO.C,D6*%
X95750000Y-47100000D03*
D19*
X95750000Y-49425000D03*
X95750000Y-52575000D03*
D18*
X95750000Y-54900000D03*
%TD*%
D17*
%TO.C,SW6*%
X99540000Y-102170000D03*
X93190000Y-104710000D03*
D15*
X102080000Y-107250000D03*
D16*
X97000000Y-107250000D03*
D15*
X91920000Y-107250000D03*
%TD*%
D18*
%TO.C,D9*%
X91666667Y-56075000D03*
D19*
X91666667Y-53750000D03*
X91666667Y-50600000D03*
D20*
X91666667Y-48275000D03*
%TD*%
D15*
%TO.C,SW1*%
X91920000Y-67750000D03*
D16*
X97000000Y-67750000D03*
D15*
X102080000Y-67750000D03*
D17*
X93190000Y-65210000D03*
X99540000Y-62670000D03*
%TD*%
D20*
%TO.C,D10*%
X111500000Y-48275000D03*
D19*
X111500000Y-50600000D03*
X111500000Y-53750000D03*
D18*
X111500000Y-56075000D03*
%TD*%
M02*
