%TF.GenerationSoftware,KiCad,Pcbnew,7.0.9-7.0.9~ubuntu22.04.1*%
%TF.CreationDate,2023-12-14T18:44:13-05:00*%
%TF.ProjectId,macrocoaster_v2,6d616372-6f63-46f6-9173-7465725f7632,rev?*%
%TF.SameCoordinates,Original*%
%TF.FileFunction,Paste,Top*%
%TF.FilePolarity,Positive*%
%FSLAX46Y46*%
G04 Gerber Fmt 4.6, Leading zero omitted, Abs format (unit mm)*
G04 Created by KiCad (PCBNEW 7.0.9-7.0.9~ubuntu22.04.1) date 2023-12-14 18:44:13*
%MOMM*%
%LPD*%
G01*
G04 APERTURE LIST*
%ADD10R,3.250000X2.000000*%
%ADD11R,2.000000X3.250000*%
%ADD12R,1.200000X1.200000*%
G04 APERTURE END LIST*
D10*
%TO.C,U1*%
X59472000Y-45920000D03*
X59472000Y-48460000D03*
X59472000Y-51000000D03*
X59472000Y-53540000D03*
X59472000Y-56080000D03*
X59472000Y-58620000D03*
X59472000Y-61160000D03*
X59472000Y-63700000D03*
X59472000Y-66240000D03*
X59472000Y-68780000D03*
X59472000Y-71320000D03*
X59472000Y-73860000D03*
X78268000Y-73860000D03*
X78268000Y-71320000D03*
X78268000Y-68780000D03*
X78268000Y-66240000D03*
X78268000Y-63700000D03*
X78268000Y-61160000D03*
X78268000Y-58620000D03*
X78268000Y-56080000D03*
X78268000Y-53540000D03*
X78268000Y-51000000D03*
X78268000Y-48460000D03*
X78268000Y-45920000D03*
D11*
X63790000Y-75765000D03*
X66330000Y-75765000D03*
X68870000Y-75765000D03*
X71410000Y-75765000D03*
X73950000Y-75765000D03*
%TD*%
D12*
%TO.C,D8*%
X136000000Y-52162500D03*
X136000000Y-49012500D03*
%TD*%
%TO.C,D2*%
X123750000Y-47425000D03*
X123750000Y-50575000D03*
%TD*%
%TO.C,D11*%
X131916667Y-50600000D03*
X131916667Y-53750000D03*
%TD*%
%TO.C,D1*%
X103916667Y-47425000D03*
X103916667Y-50575000D03*
%TD*%
%TO.C,D7*%
X115583333Y-49425000D03*
X115583333Y-52575000D03*
%TD*%
%TO.C,D4*%
X119666666Y-48425000D03*
X119666666Y-51575000D03*
%TD*%
%TO.C,D5*%
X140083334Y-47425000D03*
X140083334Y-50575000D03*
%TD*%
%TO.C,D3*%
X99833333Y-51575000D03*
X99833333Y-48425000D03*
%TD*%
%TO.C,D6*%
X95750000Y-49425000D03*
X95750000Y-52575000D03*
%TD*%
%TO.C,D9*%
X91666667Y-53750000D03*
X91666667Y-50600000D03*
%TD*%
%TO.C,D10*%
X111500000Y-50600000D03*
X111500000Y-53750000D03*
%TD*%
M02*
