%TF.GenerationSoftware,KiCad,Pcbnew,7.0.9-7.0.9~ubuntu22.04.1*%
%TF.CreationDate,2023-12-14T18:44:14-05:00*%
%TF.ProjectId,macrocoaster_v2,6d616372-6f63-46f6-9173-7465725f7632,rev?*%
%TF.SameCoordinates,Original*%
%TF.FileFunction,Legend,Bot*%
%TF.FilePolarity,Positive*%
%FSLAX46Y46*%
G04 Gerber Fmt 4.6, Leading zero omitted, Abs format (unit mm)*
G04 Created by KiCad (PCBNEW 7.0.9-7.0.9~ubuntu22.04.1) date 2023-12-14 18:44:14*
%MOMM*%
%LPD*%
G01*
G04 APERTURE LIST*
%ADD10C,0.150000*%
%ADD11C,0.300000*%
%ADD12C,0.381000*%
%ADD13R,1.752600X1.752600*%
%ADD14C,1.752600*%
G04 APERTURE END LIST*
D10*
X72569819Y-52711779D02*
X71569819Y-52711779D01*
X71569819Y-52711779D02*
X71569819Y-52949874D01*
X71569819Y-52949874D02*
X71617438Y-53092731D01*
X71617438Y-53092731D02*
X71712676Y-53187969D01*
X71712676Y-53187969D02*
X71807914Y-53235588D01*
X71807914Y-53235588D02*
X71998390Y-53283207D01*
X71998390Y-53283207D02*
X72141247Y-53283207D01*
X72141247Y-53283207D02*
X72331723Y-53235588D01*
X72331723Y-53235588D02*
X72426961Y-53187969D01*
X72426961Y-53187969D02*
X72522200Y-53092731D01*
X72522200Y-53092731D02*
X72569819Y-52949874D01*
X72569819Y-52949874D02*
X72569819Y-52711779D01*
X72522200Y-54092731D02*
X72569819Y-53997493D01*
X72569819Y-53997493D02*
X72569819Y-53807017D01*
X72569819Y-53807017D02*
X72522200Y-53711779D01*
X72522200Y-53711779D02*
X72426961Y-53664160D01*
X72426961Y-53664160D02*
X72046009Y-53664160D01*
X72046009Y-53664160D02*
X71950771Y-53711779D01*
X71950771Y-53711779D02*
X71903152Y-53807017D01*
X71903152Y-53807017D02*
X71903152Y-53997493D01*
X71903152Y-53997493D02*
X71950771Y-54092731D01*
X71950771Y-54092731D02*
X72046009Y-54140350D01*
X72046009Y-54140350D02*
X72141247Y-54140350D01*
X72141247Y-54140350D02*
X72236485Y-53664160D01*
X72522200Y-54521303D02*
X72569819Y-54616541D01*
X72569819Y-54616541D02*
X72569819Y-54807017D01*
X72569819Y-54807017D02*
X72522200Y-54902255D01*
X72522200Y-54902255D02*
X72426961Y-54949874D01*
X72426961Y-54949874D02*
X72379342Y-54949874D01*
X72379342Y-54949874D02*
X72284104Y-54902255D01*
X72284104Y-54902255D02*
X72236485Y-54807017D01*
X72236485Y-54807017D02*
X72236485Y-54664160D01*
X72236485Y-54664160D02*
X72188866Y-54568922D01*
X72188866Y-54568922D02*
X72093628Y-54521303D01*
X72093628Y-54521303D02*
X72046009Y-54521303D01*
X72046009Y-54521303D02*
X71950771Y-54568922D01*
X71950771Y-54568922D02*
X71903152Y-54664160D01*
X71903152Y-54664160D02*
X71903152Y-54807017D01*
X71903152Y-54807017D02*
X71950771Y-54902255D01*
X72569819Y-55378446D02*
X71903152Y-55378446D01*
X71569819Y-55378446D02*
X71617438Y-55330827D01*
X71617438Y-55330827D02*
X71665057Y-55378446D01*
X71665057Y-55378446D02*
X71617438Y-55426065D01*
X71617438Y-55426065D02*
X71569819Y-55378446D01*
X71569819Y-55378446D02*
X71665057Y-55378446D01*
X71903152Y-56283207D02*
X72712676Y-56283207D01*
X72712676Y-56283207D02*
X72807914Y-56235588D01*
X72807914Y-56235588D02*
X72855533Y-56187969D01*
X72855533Y-56187969D02*
X72903152Y-56092731D01*
X72903152Y-56092731D02*
X72903152Y-55949874D01*
X72903152Y-55949874D02*
X72855533Y-55854636D01*
X72522200Y-56283207D02*
X72569819Y-56187969D01*
X72569819Y-56187969D02*
X72569819Y-55997493D01*
X72569819Y-55997493D02*
X72522200Y-55902255D01*
X72522200Y-55902255D02*
X72474580Y-55854636D01*
X72474580Y-55854636D02*
X72379342Y-55807017D01*
X72379342Y-55807017D02*
X72093628Y-55807017D01*
X72093628Y-55807017D02*
X71998390Y-55854636D01*
X71998390Y-55854636D02*
X71950771Y-55902255D01*
X71950771Y-55902255D02*
X71903152Y-55997493D01*
X71903152Y-55997493D02*
X71903152Y-56187969D01*
X71903152Y-56187969D02*
X71950771Y-56283207D01*
X71903152Y-56759398D02*
X72569819Y-56759398D01*
X71998390Y-56759398D02*
X71950771Y-56807017D01*
X71950771Y-56807017D02*
X71903152Y-56902255D01*
X71903152Y-56902255D02*
X71903152Y-57045112D01*
X71903152Y-57045112D02*
X71950771Y-57140350D01*
X71950771Y-57140350D02*
X72046009Y-57187969D01*
X72046009Y-57187969D02*
X72569819Y-57187969D01*
X72522200Y-58045112D02*
X72569819Y-57949874D01*
X72569819Y-57949874D02*
X72569819Y-57759398D01*
X72569819Y-57759398D02*
X72522200Y-57664160D01*
X72522200Y-57664160D02*
X72426961Y-57616541D01*
X72426961Y-57616541D02*
X72046009Y-57616541D01*
X72046009Y-57616541D02*
X71950771Y-57664160D01*
X71950771Y-57664160D02*
X71903152Y-57759398D01*
X71903152Y-57759398D02*
X71903152Y-57949874D01*
X71903152Y-57949874D02*
X71950771Y-58045112D01*
X71950771Y-58045112D02*
X72046009Y-58092731D01*
X72046009Y-58092731D02*
X72141247Y-58092731D01*
X72141247Y-58092731D02*
X72236485Y-57616541D01*
X72569819Y-58949874D02*
X71569819Y-58949874D01*
X72522200Y-58949874D02*
X72569819Y-58854636D01*
X72569819Y-58854636D02*
X72569819Y-58664160D01*
X72569819Y-58664160D02*
X72522200Y-58568922D01*
X72522200Y-58568922D02*
X72474580Y-58521303D01*
X72474580Y-58521303D02*
X72379342Y-58473684D01*
X72379342Y-58473684D02*
X72093628Y-58473684D01*
X72093628Y-58473684D02*
X71998390Y-58521303D01*
X71998390Y-58521303D02*
X71950771Y-58568922D01*
X71950771Y-58568922D02*
X71903152Y-58664160D01*
X71903152Y-58664160D02*
X71903152Y-58854636D01*
X71903152Y-58854636D02*
X71950771Y-58949874D01*
X72569819Y-60187970D02*
X71569819Y-60187970D01*
X71950771Y-60187970D02*
X71903152Y-60283208D01*
X71903152Y-60283208D02*
X71903152Y-60473684D01*
X71903152Y-60473684D02*
X71950771Y-60568922D01*
X71950771Y-60568922D02*
X71998390Y-60616541D01*
X71998390Y-60616541D02*
X72093628Y-60664160D01*
X72093628Y-60664160D02*
X72379342Y-60664160D01*
X72379342Y-60664160D02*
X72474580Y-60616541D01*
X72474580Y-60616541D02*
X72522200Y-60568922D01*
X72522200Y-60568922D02*
X72569819Y-60473684D01*
X72569819Y-60473684D02*
X72569819Y-60283208D01*
X72569819Y-60283208D02*
X72522200Y-60187970D01*
X71903152Y-60997494D02*
X72569819Y-61235589D01*
X71903152Y-61473684D02*
X72569819Y-61235589D01*
X72569819Y-61235589D02*
X72807914Y-61140351D01*
X72807914Y-61140351D02*
X72855533Y-61092732D01*
X72855533Y-61092732D02*
X72903152Y-60997494D01*
X71569819Y-62473685D02*
X72569819Y-62807018D01*
X72569819Y-62807018D02*
X71569819Y-63140351D01*
X72569819Y-63902256D02*
X72046009Y-63902256D01*
X72046009Y-63902256D02*
X71950771Y-63854637D01*
X71950771Y-63854637D02*
X71903152Y-63759399D01*
X71903152Y-63759399D02*
X71903152Y-63568923D01*
X71903152Y-63568923D02*
X71950771Y-63473685D01*
X72522200Y-63902256D02*
X72569819Y-63807018D01*
X72569819Y-63807018D02*
X72569819Y-63568923D01*
X72569819Y-63568923D02*
X72522200Y-63473685D01*
X72522200Y-63473685D02*
X72426961Y-63426066D01*
X72426961Y-63426066D02*
X72331723Y-63426066D01*
X72331723Y-63426066D02*
X72236485Y-63473685D01*
X72236485Y-63473685D02*
X72188866Y-63568923D01*
X72188866Y-63568923D02*
X72188866Y-63807018D01*
X72188866Y-63807018D02*
X72141247Y-63902256D01*
X71903152Y-64378447D02*
X72569819Y-64378447D01*
X71998390Y-64378447D02*
X71950771Y-64426066D01*
X71950771Y-64426066D02*
X71903152Y-64521304D01*
X71903152Y-64521304D02*
X71903152Y-64664161D01*
X71903152Y-64664161D02*
X71950771Y-64759399D01*
X71950771Y-64759399D02*
X72046009Y-64807018D01*
X72046009Y-64807018D02*
X72569819Y-64807018D01*
X71903152Y-65187971D02*
X72569819Y-65426066D01*
X71903152Y-65664161D02*
X72569819Y-65426066D01*
X72569819Y-65426066D02*
X72807914Y-65330828D01*
X72807914Y-65330828D02*
X72855533Y-65283209D01*
X72855533Y-65283209D02*
X72903152Y-65187971D01*
X72569819Y-66473685D02*
X72046009Y-66473685D01*
X72046009Y-66473685D02*
X71950771Y-66426066D01*
X71950771Y-66426066D02*
X71903152Y-66330828D01*
X71903152Y-66330828D02*
X71903152Y-66140352D01*
X71903152Y-66140352D02*
X71950771Y-66045114D01*
X72522200Y-66473685D02*
X72569819Y-66378447D01*
X72569819Y-66378447D02*
X72569819Y-66140352D01*
X72569819Y-66140352D02*
X72522200Y-66045114D01*
X72522200Y-66045114D02*
X72426961Y-65997495D01*
X72426961Y-65997495D02*
X72331723Y-65997495D01*
X72331723Y-65997495D02*
X72236485Y-66045114D01*
X72236485Y-66045114D02*
X72188866Y-66140352D01*
X72188866Y-66140352D02*
X72188866Y-66378447D01*
X72188866Y-66378447D02*
X72141247Y-66473685D01*
X66219819Y-52611779D02*
X65219819Y-52611779D01*
X65219819Y-52611779D02*
X65934104Y-52945112D01*
X65934104Y-52945112D02*
X65219819Y-53278445D01*
X65219819Y-53278445D02*
X66219819Y-53278445D01*
X66219819Y-54183207D02*
X65696009Y-54183207D01*
X65696009Y-54183207D02*
X65600771Y-54135588D01*
X65600771Y-54135588D02*
X65553152Y-54040350D01*
X65553152Y-54040350D02*
X65553152Y-53849874D01*
X65553152Y-53849874D02*
X65600771Y-53754636D01*
X66172200Y-54183207D02*
X66219819Y-54087969D01*
X66219819Y-54087969D02*
X66219819Y-53849874D01*
X66219819Y-53849874D02*
X66172200Y-53754636D01*
X66172200Y-53754636D02*
X66076961Y-53707017D01*
X66076961Y-53707017D02*
X65981723Y-53707017D01*
X65981723Y-53707017D02*
X65886485Y-53754636D01*
X65886485Y-53754636D02*
X65838866Y-53849874D01*
X65838866Y-53849874D02*
X65838866Y-54087969D01*
X65838866Y-54087969D02*
X65791247Y-54183207D01*
X66172200Y-55087969D02*
X66219819Y-54992731D01*
X66219819Y-54992731D02*
X66219819Y-54802255D01*
X66219819Y-54802255D02*
X66172200Y-54707017D01*
X66172200Y-54707017D02*
X66124580Y-54659398D01*
X66124580Y-54659398D02*
X66029342Y-54611779D01*
X66029342Y-54611779D02*
X65743628Y-54611779D01*
X65743628Y-54611779D02*
X65648390Y-54659398D01*
X65648390Y-54659398D02*
X65600771Y-54707017D01*
X65600771Y-54707017D02*
X65553152Y-54802255D01*
X65553152Y-54802255D02*
X65553152Y-54992731D01*
X65553152Y-54992731D02*
X65600771Y-55087969D01*
X66219819Y-55516541D02*
X65553152Y-55516541D01*
X65743628Y-55516541D02*
X65648390Y-55564160D01*
X65648390Y-55564160D02*
X65600771Y-55611779D01*
X65600771Y-55611779D02*
X65553152Y-55707017D01*
X65553152Y-55707017D02*
X65553152Y-55802255D01*
X66219819Y-56278446D02*
X66172200Y-56183208D01*
X66172200Y-56183208D02*
X66124580Y-56135589D01*
X66124580Y-56135589D02*
X66029342Y-56087970D01*
X66029342Y-56087970D02*
X65743628Y-56087970D01*
X65743628Y-56087970D02*
X65648390Y-56135589D01*
X65648390Y-56135589D02*
X65600771Y-56183208D01*
X65600771Y-56183208D02*
X65553152Y-56278446D01*
X65553152Y-56278446D02*
X65553152Y-56421303D01*
X65553152Y-56421303D02*
X65600771Y-56516541D01*
X65600771Y-56516541D02*
X65648390Y-56564160D01*
X65648390Y-56564160D02*
X65743628Y-56611779D01*
X65743628Y-56611779D02*
X66029342Y-56611779D01*
X66029342Y-56611779D02*
X66124580Y-56564160D01*
X66124580Y-56564160D02*
X66172200Y-56516541D01*
X66172200Y-56516541D02*
X66219819Y-56421303D01*
X66219819Y-56421303D02*
X66219819Y-56278446D01*
X66172200Y-57468922D02*
X66219819Y-57373684D01*
X66219819Y-57373684D02*
X66219819Y-57183208D01*
X66219819Y-57183208D02*
X66172200Y-57087970D01*
X66172200Y-57087970D02*
X66124580Y-57040351D01*
X66124580Y-57040351D02*
X66029342Y-56992732D01*
X66029342Y-56992732D02*
X65743628Y-56992732D01*
X65743628Y-56992732D02*
X65648390Y-57040351D01*
X65648390Y-57040351D02*
X65600771Y-57087970D01*
X65600771Y-57087970D02*
X65553152Y-57183208D01*
X65553152Y-57183208D02*
X65553152Y-57373684D01*
X65553152Y-57373684D02*
X65600771Y-57468922D01*
X66219819Y-58040351D02*
X66172200Y-57945113D01*
X66172200Y-57945113D02*
X66124580Y-57897494D01*
X66124580Y-57897494D02*
X66029342Y-57849875D01*
X66029342Y-57849875D02*
X65743628Y-57849875D01*
X65743628Y-57849875D02*
X65648390Y-57897494D01*
X65648390Y-57897494D02*
X65600771Y-57945113D01*
X65600771Y-57945113D02*
X65553152Y-58040351D01*
X65553152Y-58040351D02*
X65553152Y-58183208D01*
X65553152Y-58183208D02*
X65600771Y-58278446D01*
X65600771Y-58278446D02*
X65648390Y-58326065D01*
X65648390Y-58326065D02*
X65743628Y-58373684D01*
X65743628Y-58373684D02*
X66029342Y-58373684D01*
X66029342Y-58373684D02*
X66124580Y-58326065D01*
X66124580Y-58326065D02*
X66172200Y-58278446D01*
X66172200Y-58278446D02*
X66219819Y-58183208D01*
X66219819Y-58183208D02*
X66219819Y-58040351D01*
X66219819Y-59230827D02*
X65696009Y-59230827D01*
X65696009Y-59230827D02*
X65600771Y-59183208D01*
X65600771Y-59183208D02*
X65553152Y-59087970D01*
X65553152Y-59087970D02*
X65553152Y-58897494D01*
X65553152Y-58897494D02*
X65600771Y-58802256D01*
X66172200Y-59230827D02*
X66219819Y-59135589D01*
X66219819Y-59135589D02*
X66219819Y-58897494D01*
X66219819Y-58897494D02*
X66172200Y-58802256D01*
X66172200Y-58802256D02*
X66076961Y-58754637D01*
X66076961Y-58754637D02*
X65981723Y-58754637D01*
X65981723Y-58754637D02*
X65886485Y-58802256D01*
X65886485Y-58802256D02*
X65838866Y-58897494D01*
X65838866Y-58897494D02*
X65838866Y-59135589D01*
X65838866Y-59135589D02*
X65791247Y-59230827D01*
X66172200Y-59659399D02*
X66219819Y-59754637D01*
X66219819Y-59754637D02*
X66219819Y-59945113D01*
X66219819Y-59945113D02*
X66172200Y-60040351D01*
X66172200Y-60040351D02*
X66076961Y-60087970D01*
X66076961Y-60087970D02*
X66029342Y-60087970D01*
X66029342Y-60087970D02*
X65934104Y-60040351D01*
X65934104Y-60040351D02*
X65886485Y-59945113D01*
X65886485Y-59945113D02*
X65886485Y-59802256D01*
X65886485Y-59802256D02*
X65838866Y-59707018D01*
X65838866Y-59707018D02*
X65743628Y-59659399D01*
X65743628Y-59659399D02*
X65696009Y-59659399D01*
X65696009Y-59659399D02*
X65600771Y-59707018D01*
X65600771Y-59707018D02*
X65553152Y-59802256D01*
X65553152Y-59802256D02*
X65553152Y-59945113D01*
X65553152Y-59945113D02*
X65600771Y-60040351D01*
X65553152Y-60373685D02*
X65553152Y-60754637D01*
X65219819Y-60516542D02*
X66076961Y-60516542D01*
X66076961Y-60516542D02*
X66172200Y-60564161D01*
X66172200Y-60564161D02*
X66219819Y-60659399D01*
X66219819Y-60659399D02*
X66219819Y-60754637D01*
X66172200Y-61468923D02*
X66219819Y-61373685D01*
X66219819Y-61373685D02*
X66219819Y-61183209D01*
X66219819Y-61183209D02*
X66172200Y-61087971D01*
X66172200Y-61087971D02*
X66076961Y-61040352D01*
X66076961Y-61040352D02*
X65696009Y-61040352D01*
X65696009Y-61040352D02*
X65600771Y-61087971D01*
X65600771Y-61087971D02*
X65553152Y-61183209D01*
X65553152Y-61183209D02*
X65553152Y-61373685D01*
X65553152Y-61373685D02*
X65600771Y-61468923D01*
X65600771Y-61468923D02*
X65696009Y-61516542D01*
X65696009Y-61516542D02*
X65791247Y-61516542D01*
X65791247Y-61516542D02*
X65886485Y-61040352D01*
X66219819Y-61945114D02*
X65553152Y-61945114D01*
X65743628Y-61945114D02*
X65648390Y-61992733D01*
X65648390Y-61992733D02*
X65600771Y-62040352D01*
X65600771Y-62040352D02*
X65553152Y-62135590D01*
X65553152Y-62135590D02*
X65553152Y-62230828D01*
X65553152Y-63230829D02*
X66219819Y-63468924D01*
X66219819Y-63468924D02*
X65553152Y-63707019D01*
X65219819Y-64278448D02*
X65219819Y-64373686D01*
X65219819Y-64373686D02*
X65267438Y-64468924D01*
X65267438Y-64468924D02*
X65315057Y-64516543D01*
X65315057Y-64516543D02*
X65410295Y-64564162D01*
X65410295Y-64564162D02*
X65600771Y-64611781D01*
X65600771Y-64611781D02*
X65838866Y-64611781D01*
X65838866Y-64611781D02*
X66029342Y-64564162D01*
X66029342Y-64564162D02*
X66124580Y-64516543D01*
X66124580Y-64516543D02*
X66172200Y-64468924D01*
X66172200Y-64468924D02*
X66219819Y-64373686D01*
X66219819Y-64373686D02*
X66219819Y-64278448D01*
X66219819Y-64278448D02*
X66172200Y-64183210D01*
X66172200Y-64183210D02*
X66124580Y-64135591D01*
X66124580Y-64135591D02*
X66029342Y-64087972D01*
X66029342Y-64087972D02*
X65838866Y-64040353D01*
X65838866Y-64040353D02*
X65600771Y-64040353D01*
X65600771Y-64040353D02*
X65410295Y-64087972D01*
X65410295Y-64087972D02*
X65315057Y-64135591D01*
X65315057Y-64135591D02*
X65267438Y-64183210D01*
X65267438Y-64183210D02*
X65219819Y-64278448D01*
X66124580Y-65040353D02*
X66172200Y-65087972D01*
X66172200Y-65087972D02*
X66219819Y-65040353D01*
X66219819Y-65040353D02*
X66172200Y-64992734D01*
X66172200Y-64992734D02*
X66124580Y-65040353D01*
X66124580Y-65040353D02*
X66219819Y-65040353D01*
X65219819Y-65421305D02*
X65219819Y-66040352D01*
X65219819Y-66040352D02*
X65600771Y-65707019D01*
X65600771Y-65707019D02*
X65600771Y-65849876D01*
X65600771Y-65849876D02*
X65648390Y-65945114D01*
X65648390Y-65945114D02*
X65696009Y-65992733D01*
X65696009Y-65992733D02*
X65791247Y-66040352D01*
X65791247Y-66040352D02*
X66029342Y-66040352D01*
X66029342Y-66040352D02*
X66124580Y-65992733D01*
X66124580Y-65992733D02*
X66172200Y-65945114D01*
X66172200Y-65945114D02*
X66219819Y-65849876D01*
X66219819Y-65849876D02*
X66219819Y-65564162D01*
X66219819Y-65564162D02*
X66172200Y-65468924D01*
X66172200Y-65468924D02*
X66124580Y-65421305D01*
D11*
X126295489Y-138325828D02*
X126295489Y-136825828D01*
X126295489Y-137540114D02*
X125438346Y-137540114D01*
X125438346Y-138325828D02*
X125438346Y-136825828D01*
X124795488Y-137897257D02*
X124081203Y-137897257D01*
X124938345Y-138325828D02*
X124438345Y-136825828D01*
X124438345Y-136825828D02*
X123938345Y-138325828D01*
X122581203Y-138182971D02*
X122652631Y-138254400D01*
X122652631Y-138254400D02*
X122866917Y-138325828D01*
X122866917Y-138325828D02*
X123009774Y-138325828D01*
X123009774Y-138325828D02*
X123224060Y-138254400D01*
X123224060Y-138254400D02*
X123366917Y-138111542D01*
X123366917Y-138111542D02*
X123438346Y-137968685D01*
X123438346Y-137968685D02*
X123509774Y-137682971D01*
X123509774Y-137682971D02*
X123509774Y-137468685D01*
X123509774Y-137468685D02*
X123438346Y-137182971D01*
X123438346Y-137182971D02*
X123366917Y-137040114D01*
X123366917Y-137040114D02*
X123224060Y-136897257D01*
X123224060Y-136897257D02*
X123009774Y-136825828D01*
X123009774Y-136825828D02*
X122866917Y-136825828D01*
X122866917Y-136825828D02*
X122652631Y-136897257D01*
X122652631Y-136897257D02*
X122581203Y-136968685D01*
X121938346Y-138325828D02*
X121938346Y-136825828D01*
X121081203Y-138325828D02*
X121724060Y-137468685D01*
X121081203Y-136825828D02*
X121938346Y-137682971D01*
X119509774Y-136825828D02*
X118652632Y-136825828D01*
X119081203Y-138325828D02*
X119081203Y-136825828D01*
X118152632Y-138325828D02*
X118152632Y-136825828D01*
X118152632Y-137540114D02*
X117295489Y-137540114D01*
X117295489Y-138325828D02*
X117295489Y-136825828D01*
X116581203Y-137540114D02*
X116081203Y-137540114D01*
X115866917Y-138325828D02*
X116581203Y-138325828D01*
X116581203Y-138325828D02*
X116581203Y-136825828D01*
X116581203Y-136825828D02*
X115866917Y-136825828D01*
X114081203Y-138325828D02*
X114081203Y-136825828D01*
X114081203Y-136825828D02*
X113509774Y-136825828D01*
X113509774Y-136825828D02*
X113366917Y-136897257D01*
X113366917Y-136897257D02*
X113295488Y-136968685D01*
X113295488Y-136968685D02*
X113224060Y-137111542D01*
X113224060Y-137111542D02*
X113224060Y-137325828D01*
X113224060Y-137325828D02*
X113295488Y-137468685D01*
X113295488Y-137468685D02*
X113366917Y-137540114D01*
X113366917Y-137540114D02*
X113509774Y-137611542D01*
X113509774Y-137611542D02*
X114081203Y-137611542D01*
X111866917Y-138325828D02*
X112581203Y-138325828D01*
X112581203Y-138325828D02*
X112581203Y-136825828D01*
X111438345Y-137897257D02*
X110724060Y-137897257D01*
X111581202Y-138325828D02*
X111081202Y-136825828D01*
X111081202Y-136825828D02*
X110581202Y-138325828D01*
X110081203Y-138325828D02*
X110081203Y-136825828D01*
X110081203Y-136825828D02*
X109224060Y-138325828D01*
X109224060Y-138325828D02*
X109224060Y-136825828D01*
X108509774Y-137540114D02*
X108009774Y-137540114D01*
X107795488Y-138325828D02*
X108509774Y-138325828D01*
X108509774Y-138325828D02*
X108509774Y-136825828D01*
X108509774Y-136825828D02*
X107795488Y-136825828D01*
X107366916Y-136825828D02*
X106509774Y-136825828D01*
X106938345Y-138325828D02*
X106938345Y-136825828D01*
D12*
%TO.C,U1*%
X77760000Y-42110000D02*
X59980000Y-42110000D01*
X59980000Y-42110000D02*
X59980000Y-75130000D01*
X62520000Y-44650000D02*
X59980000Y-44650000D01*
X62520000Y-44650000D02*
X62520000Y-47190000D01*
X62520000Y-47190000D02*
X59980000Y-47190000D01*
X77760000Y-75130000D02*
X77760000Y-42110000D01*
X59980000Y-75130000D02*
X77760000Y-75130000D01*
%TO.C,G\u002A\u002A\u002A*%
G36*
X82739561Y-85320899D02*
G01*
X83630336Y-85430417D01*
X84428648Y-85633940D01*
X85093700Y-85930484D01*
X85562417Y-86268914D01*
X86013047Y-86772869D01*
X86318621Y-87344198D01*
X86475938Y-87953582D01*
X86481788Y-88571702D01*
X86332976Y-89169236D01*
X86026292Y-89716862D01*
X85558532Y-90185261D01*
X85492733Y-90234638D01*
X85268402Y-90385241D01*
X85031060Y-90505817D01*
X84744296Y-90607757D01*
X84371705Y-90702449D01*
X83876876Y-90801275D01*
X83223404Y-90915629D01*
X82700768Y-91006673D01*
X82182815Y-91107392D01*
X81814970Y-91196684D01*
X81571799Y-91282130D01*
X81427865Y-91371314D01*
X81357734Y-91471820D01*
X81361019Y-91622450D01*
X81498803Y-91835609D01*
X81563750Y-91888601D01*
X81880166Y-92015972D01*
X82329635Y-92079446D01*
X82872662Y-92082116D01*
X83469752Y-92027072D01*
X84081404Y-91917410D01*
X84668132Y-91756217D01*
X85190432Y-91546589D01*
X85397000Y-91454771D01*
X85628756Y-91378730D01*
X85744706Y-91378133D01*
X85772024Y-91418903D01*
X85873229Y-91615772D01*
X86015447Y-91922243D01*
X86178059Y-92290268D01*
X86340434Y-92671802D01*
X86481953Y-93018797D01*
X86581988Y-93283211D01*
X86619917Y-93416993D01*
X86545052Y-93538412D01*
X86305097Y-93690314D01*
X85931180Y-93849821D01*
X85455434Y-94006469D01*
X84909989Y-94149806D01*
X84326981Y-94269371D01*
X83738537Y-94354712D01*
X83208002Y-94398044D01*
X82207577Y-94391339D01*
X81273887Y-94269518D01*
X80434070Y-94038953D01*
X79715276Y-93706007D01*
X79144646Y-93277052D01*
X78988718Y-93111956D01*
X78618887Y-92555450D01*
X78412280Y-91950641D01*
X78364652Y-91329026D01*
X78471770Y-90722090D01*
X78729395Y-90161327D01*
X79133291Y-89678231D01*
X79679219Y-89304290D01*
X79734731Y-89277200D01*
X79988831Y-89171879D01*
X80301506Y-89074238D01*
X80706899Y-88975757D01*
X81239141Y-88867922D01*
X81932372Y-88742219D01*
X82057427Y-88720196D01*
X82610129Y-88616897D01*
X82999343Y-88527218D01*
X83251547Y-88439450D01*
X83393210Y-88341881D01*
X83450810Y-88222799D01*
X83450816Y-88070492D01*
X83420318Y-87939680D01*
X83294471Y-87792116D01*
X83026505Y-87674216D01*
X82750946Y-87609140D01*
X82207649Y-87571355D01*
X81592694Y-87609605D01*
X80971196Y-87718460D01*
X80408252Y-87892499D01*
X80392160Y-87898925D01*
X80060690Y-88026137D01*
X79801328Y-88116548D01*
X79669004Y-88150952D01*
X79604999Y-88077104D01*
X79477274Y-87851828D01*
X79303835Y-87506819D01*
X79100249Y-87074264D01*
X78882083Y-86586350D01*
X78664913Y-86075258D01*
X78718646Y-86015813D01*
X78913820Y-85910627D01*
X79206386Y-85788500D01*
X79920470Y-85566215D01*
X80843825Y-85387814D01*
X81797123Y-85306370D01*
X82739561Y-85320899D01*
G37*
G36*
X77189351Y-97319846D02*
G01*
X77469944Y-97378397D01*
X77751182Y-97510844D01*
X77979983Y-97669340D01*
X78311327Y-98065292D01*
X78497642Y-98554076D01*
X78527888Y-99098585D01*
X78391025Y-99661712D01*
X78222269Y-99966542D01*
X77864045Y-100284437D01*
X77365652Y-100464869D01*
X77328503Y-100472189D01*
X77084927Y-100519058D01*
X76944080Y-100544282D01*
X76921361Y-100543472D01*
X76751939Y-100497512D01*
X76502597Y-100403312D01*
X76467653Y-100389026D01*
X76213160Y-100315715D01*
X76103756Y-100354085D01*
X75998597Y-100425755D01*
X75782255Y-100457153D01*
X75495110Y-100457153D01*
X75495110Y-98783510D01*
X76971854Y-98783510D01*
X76971854Y-99078857D01*
X76953740Y-99274232D01*
X76858787Y-99357743D01*
X76627280Y-99374207D01*
X76452149Y-99390314D01*
X76296560Y-99476006D01*
X76321001Y-99607364D01*
X76533464Y-99752204D01*
X76863323Y-99854057D01*
X77169323Y-99805652D01*
X77471675Y-99578678D01*
X77539625Y-99507227D01*
X77712095Y-99234545D01*
X77759453Y-98902958D01*
X77754734Y-98802563D01*
X77635607Y-98427701D01*
X77382329Y-98158409D01*
X77030162Y-98011376D01*
X76614371Y-98003294D01*
X76170221Y-98150846D01*
X76136354Y-98168090D01*
X75940955Y-98255348D01*
X75850469Y-98273909D01*
X75802961Y-98173802D01*
X75714365Y-97971983D01*
X75656972Y-97811174D01*
X75683870Y-97670834D01*
X75856685Y-97532696D01*
X75989384Y-97468313D01*
X76325861Y-97376579D01*
X76732046Y-97324172D01*
X76821086Y-97319021D01*
X77189351Y-97319846D01*
G37*
G36*
X96682826Y-98237801D02*
G01*
X96711002Y-99168836D01*
X97449374Y-98242817D01*
X97646456Y-97997003D01*
X97908233Y-97682690D01*
X98099099Y-97483133D01*
X98250119Y-97372211D01*
X98392373Y-97323800D01*
X98556932Y-97311782D01*
X98926118Y-97306766D01*
X98926118Y-100457153D01*
X98145911Y-100457153D01*
X98117603Y-99564146D01*
X98089298Y-98671142D01*
X97366907Y-99564146D01*
X97267931Y-99686135D01*
X96978191Y-100033595D01*
X96768449Y-100258217D01*
X96607640Y-100386212D01*
X96464705Y-100443785D01*
X96308576Y-100457153D01*
X95972630Y-100457153D01*
X95972630Y-97306766D01*
X96654647Y-97306766D01*
X96682826Y-98237801D01*
G37*
G36*
X64870148Y-97382882D02*
G01*
X65249297Y-97573199D01*
X65476226Y-97887665D01*
X65551700Y-98326868D01*
X65548355Y-98400380D01*
X65426072Y-98733554D01*
X65136419Y-98977142D01*
X64691123Y-99120332D01*
X64582649Y-99139052D01*
X64192550Y-99209789D01*
X63954083Y-99266633D01*
X63832256Y-99324638D01*
X63792080Y-99398861D01*
X63798560Y-99504353D01*
X63855653Y-99650711D01*
X64070876Y-99800687D01*
X64416734Y-99844676D01*
X64867724Y-99776195D01*
X65059349Y-99730304D01*
X65292635Y-99686033D01*
X65395994Y-99683579D01*
X65434253Y-99782627D01*
X65491070Y-99991784D01*
X65509232Y-100080584D01*
X65489006Y-100252034D01*
X65332634Y-100354730D01*
X65292890Y-100368956D01*
X64981946Y-100426976D01*
X64574168Y-100449269D01*
X64142426Y-100437347D01*
X63759593Y-100392710D01*
X63498536Y-100316861D01*
X63374216Y-100239080D01*
X63124337Y-99953621D01*
X63009707Y-99603065D01*
X63041192Y-99243425D01*
X63229655Y-98930714D01*
X63271538Y-98889749D01*
X63424952Y-98766155D01*
X63608516Y-98680307D01*
X63877349Y-98611859D01*
X64286576Y-98540453D01*
X64548638Y-98477717D01*
X64755560Y-98356814D01*
X64784762Y-98207159D01*
X64626656Y-98042786D01*
X64587992Y-98018288D01*
X64407737Y-97940237D01*
X64193078Y-97932290D01*
X63867329Y-97989017D01*
X63667937Y-98028083D01*
X63427757Y-98062271D01*
X63317777Y-98059148D01*
X63285551Y-97957943D01*
X63258308Y-97744079D01*
X63257054Y-97671941D01*
X63312218Y-97506035D01*
X63477449Y-97399679D01*
X63781253Y-97340612D01*
X64252130Y-97316579D01*
X64338014Y-97316117D01*
X64870148Y-97382882D01*
G37*
G36*
X69981932Y-100457153D02*
G01*
X67520693Y-100457153D01*
X67520693Y-99768005D01*
X69292784Y-99768005D01*
X69292784Y-99177308D01*
X67816040Y-99177308D01*
X67816040Y-98586611D01*
X69292784Y-98586611D01*
X69292784Y-97995914D01*
X67619141Y-97995914D01*
X67619141Y-97306766D01*
X69981932Y-97306766D01*
X69981932Y-100457153D01*
G37*
G36*
X97244138Y-89646995D02*
G01*
X97226999Y-90398819D01*
X97115144Y-91069964D01*
X96968339Y-91518641D01*
X96559364Y-92305364D01*
X95993393Y-92990498D01*
X95284925Y-93561071D01*
X94448462Y-94004099D01*
X93498506Y-94306610D01*
X93360674Y-94334483D01*
X92716271Y-94401890D01*
X91994564Y-94399289D01*
X91279832Y-94329926D01*
X90656351Y-94197050D01*
X90269339Y-94067126D01*
X89399843Y-93646559D01*
X88668992Y-93096020D01*
X88085756Y-92427230D01*
X87659111Y-91651904D01*
X87398024Y-90781763D01*
X87317523Y-89895176D01*
X90523577Y-89895176D01*
X90526322Y-89983016D01*
X90624773Y-90600209D01*
X90870200Y-91106339D01*
X91277621Y-91534037D01*
X91431437Y-91647761D01*
X91751984Y-91797392D01*
X92156738Y-91858364D01*
X92340713Y-91863104D01*
X92678870Y-91841378D01*
X92920691Y-91787288D01*
X92985725Y-91757816D01*
X93398606Y-91462490D01*
X93741401Y-91035887D01*
X93966917Y-90534530D01*
X94033595Y-90249122D01*
X94065707Y-89628443D01*
X93946937Y-89061851D01*
X93693608Y-88575389D01*
X93322031Y-88195100D01*
X92848529Y-87947030D01*
X92289419Y-87857222D01*
X92139731Y-87862262D01*
X91590356Y-87989924D01*
X91137932Y-88275650D01*
X90798581Y-88700840D01*
X90588422Y-89246882D01*
X90523577Y-89895176D01*
X87317523Y-89895176D01*
X87311471Y-89828522D01*
X87355319Y-89172818D01*
X87564620Y-88281047D01*
X87936398Y-87484994D01*
X88459544Y-86795693D01*
X89122955Y-86224178D01*
X89915516Y-85781486D01*
X90826121Y-85478645D01*
X91843667Y-85326695D01*
X91994585Y-85318169D01*
X93010568Y-85352606D01*
X93980423Y-85541696D01*
X94869242Y-85876073D01*
X95642117Y-86346365D01*
X96043661Y-86721911D01*
X96460214Y-87250397D01*
X96813095Y-87838721D01*
X97054523Y-88416848D01*
X97168643Y-88905278D01*
X97242251Y-89628443D01*
X97244138Y-89646995D01*
G37*
G36*
X67191398Y-86478644D02*
G01*
X67981949Y-87562925D01*
X68741564Y-86478644D01*
X69501182Y-85394363D01*
X71267525Y-85394363D01*
X71790968Y-85397693D01*
X72287519Y-85408028D01*
X72680273Y-85424090D01*
X72938195Y-85444580D01*
X73030259Y-85468199D01*
X72973286Y-85563206D01*
X72813704Y-85794740D01*
X72566849Y-86141393D01*
X72248057Y-86581826D01*
X71872658Y-87094709D01*
X71455988Y-87658703D01*
X71039858Y-88221626D01*
X70664855Y-88733027D01*
X70346522Y-89171366D01*
X70100147Y-89515472D01*
X69941015Y-89744165D01*
X69884405Y-89836265D01*
X69884561Y-89837372D01*
X69947555Y-89936426D01*
X70114067Y-90169907D01*
X70368731Y-90517028D01*
X70696169Y-90956996D01*
X71081018Y-91469021D01*
X71507900Y-92032313D01*
X71532920Y-92065205D01*
X71957651Y-92625182D01*
X72339587Y-93131690D01*
X72663377Y-93564137D01*
X72913664Y-93901922D01*
X73075097Y-94124459D01*
X73132319Y-94211147D01*
X73064609Y-94223279D01*
X72829079Y-94235876D01*
X72455042Y-94245869D01*
X71974088Y-94252454D01*
X71417792Y-94254827D01*
X69703265Y-94254827D01*
X68907743Y-93171881D01*
X68821202Y-93054335D01*
X68539277Y-92675312D01*
X68306915Y-92368808D01*
X68146214Y-92163719D01*
X68079281Y-92088935D01*
X68073800Y-92092874D01*
X67988348Y-92201714D01*
X67819331Y-92437334D01*
X67588067Y-92769593D01*
X67315880Y-93168344D01*
X66585422Y-94247753D01*
X64788716Y-94251290D01*
X64238054Y-94249445D01*
X63739187Y-94241864D01*
X63344657Y-94229480D01*
X63085313Y-94213271D01*
X62992010Y-94194218D01*
X63001595Y-94176398D01*
X63099947Y-94031870D01*
X63290204Y-93763787D01*
X63554378Y-93396746D01*
X63874481Y-92955332D01*
X64232528Y-92464142D01*
X64610531Y-91947761D01*
X64990508Y-91430786D01*
X65354468Y-90937802D01*
X65684429Y-90493403D01*
X65962403Y-90122177D01*
X66170402Y-89848718D01*
X66167315Y-89771030D01*
X66078059Y-89586851D01*
X65891300Y-89290649D01*
X65600249Y-88872326D01*
X65198114Y-88321790D01*
X64678112Y-87628937D01*
X64260368Y-87074927D01*
X63880550Y-86566460D01*
X63558143Y-86129942D01*
X63308657Y-85786514D01*
X63147593Y-85557329D01*
X63090458Y-85463534D01*
X63145568Y-85445858D01*
X63367457Y-85425344D01*
X63729530Y-85409027D01*
X64199645Y-85398251D01*
X64745654Y-85394363D01*
X66400850Y-85394363D01*
X67191398Y-86478644D01*
G37*
G36*
X88096661Y-100457153D02*
G01*
X85832321Y-100457153D01*
X85832321Y-99768005D01*
X87407513Y-99768005D01*
X87407513Y-97306766D01*
X88096661Y-97306766D01*
X88096661Y-100457153D01*
G37*
G36*
X118714490Y-85788161D02*
G01*
X119994335Y-85788161D01*
X119994335Y-88150952D01*
X118714490Y-88150952D01*
X118713746Y-89652308D01*
X118712912Y-89836913D01*
X118701425Y-90425495D01*
X118678577Y-90984479D01*
X118647086Y-91458107D01*
X118609661Y-91790618D01*
X118565807Y-92021363D01*
X118317710Y-92760659D01*
X117927548Y-93363668D01*
X117395723Y-93830012D01*
X116722634Y-94159316D01*
X115908677Y-94351199D01*
X115286207Y-94397504D01*
X114436445Y-94354052D01*
X113644334Y-94199936D01*
X113491454Y-94156613D01*
X113212520Y-94068404D01*
X113042675Y-93971579D01*
X112972238Y-93830393D01*
X112991519Y-93609113D01*
X113090840Y-93271991D01*
X113260514Y-92783294D01*
X113315795Y-92625959D01*
X113468033Y-92208197D01*
X113580566Y-91940645D01*
X113669522Y-91794689D01*
X113751035Y-91741712D01*
X113841236Y-91753100D01*
X113931230Y-91776986D01*
X114208118Y-91825568D01*
X114541307Y-91864412D01*
X114704921Y-91876862D01*
X114949736Y-91870418D01*
X115108439Y-91799507D01*
X115255067Y-91640954D01*
X115293203Y-91590401D01*
X115361369Y-91474220D01*
X115408814Y-91326797D01*
X115439249Y-91115000D01*
X115456394Y-90805703D01*
X115463957Y-90365777D01*
X115465652Y-89762093D01*
X115465652Y-88150952D01*
X113496662Y-88150952D01*
X113496662Y-85788161D01*
X115465652Y-85788161D01*
X115465652Y-83523821D01*
X118714490Y-83523821D01*
X118714490Y-85788161D01*
G37*
G36*
X108026450Y-97355948D02*
G01*
X108475334Y-97515269D01*
X108852755Y-97818170D01*
X109124474Y-98243189D01*
X109255331Y-98730014D01*
X109240640Y-99234977D01*
X109075700Y-99714413D01*
X108755822Y-100124660D01*
X108553910Y-100284965D01*
X108377282Y-100387625D01*
X108233312Y-100413752D01*
X107945039Y-100437185D01*
X107589683Y-100449014D01*
X107274794Y-100442456D01*
X106913351Y-100385903D01*
X106629800Y-100261334D01*
X106596425Y-100240592D01*
X106371083Y-100050743D01*
X106324784Y-99857753D01*
X106445579Y-99620006D01*
X106527878Y-99520853D01*
X106637864Y-99490937D01*
X106816208Y-99588278D01*
X107135900Y-99749537D01*
X107574215Y-99824144D01*
X107973380Y-99724007D01*
X108197300Y-99569933D01*
X108417554Y-99266618D01*
X108492215Y-98922851D01*
X108431828Y-98581265D01*
X108246941Y-98284490D01*
X107948099Y-98075162D01*
X107545850Y-97995914D01*
X107468723Y-97998278D01*
X107163632Y-98047517D01*
X106943966Y-98140457D01*
X106930532Y-98150588D01*
X106743740Y-98267591D01*
X106630898Y-98236388D01*
X106522541Y-98040506D01*
X106470926Y-97922666D01*
X106422713Y-97725386D01*
X106504529Y-97596296D01*
X106743128Y-97465658D01*
X106991084Y-97376570D01*
X107502296Y-97308872D01*
X108026450Y-97355948D01*
G37*
G36*
X118714490Y-97995914D02*
G01*
X117631544Y-97995914D01*
X117631544Y-100457153D01*
X116942396Y-100457153D01*
X116942396Y-97995914D01*
X115859453Y-97995914D01*
X115859453Y-97306766D01*
X118714490Y-97306766D01*
X118714490Y-97995914D01*
G37*
G36*
X113693561Y-100457153D02*
G01*
X111232319Y-100457153D01*
X111232319Y-99768005D01*
X113004413Y-99768005D01*
X113004413Y-99177308D01*
X111527669Y-99177308D01*
X111527669Y-98586611D01*
X113004413Y-98586611D01*
X113004413Y-97995914D01*
X111330770Y-97995914D01*
X111330770Y-97306766D01*
X113693561Y-97306766D01*
X113693561Y-100457153D01*
G37*
G36*
X93707921Y-98946062D02*
G01*
X93634970Y-99447410D01*
X93394199Y-99909632D01*
X92995430Y-100260785D01*
X92885159Y-100318085D01*
X92456045Y-100436315D01*
X91958924Y-100464137D01*
X91474460Y-100401998D01*
X91083323Y-100250333D01*
X90957818Y-100162556D01*
X90619181Y-99780434D01*
X90421202Y-99297032D01*
X90393690Y-98880857D01*
X91148600Y-98880857D01*
X91185269Y-99196406D01*
X91359692Y-99511184D01*
X91694834Y-99727115D01*
X91866653Y-99796958D01*
X92064962Y-99850790D01*
X92229023Y-99823373D01*
X92450582Y-99712991D01*
X92638946Y-99579077D01*
X92850008Y-99281213D01*
X92924807Y-98937467D01*
X92873423Y-98592455D01*
X92705924Y-98290784D01*
X92432381Y-98077064D01*
X92062871Y-97995914D01*
X91793105Y-98046386D01*
X91470797Y-98242364D01*
X91238087Y-98537825D01*
X91148600Y-98880857D01*
X90393690Y-98880857D01*
X90385622Y-98758814D01*
X90401360Y-98633957D01*
X90570482Y-98110094D01*
X90888110Y-97711679D01*
X91344800Y-97447460D01*
X91931108Y-97326194D01*
X92056361Y-97318244D01*
X92393726Y-97321904D01*
X92660936Y-97388561D01*
X92953343Y-97537970D01*
X93024602Y-97581737D01*
X93410531Y-97929281D01*
X93635312Y-98378474D01*
X93706820Y-98937467D01*
X93707921Y-98946062D01*
G37*
G36*
X83915411Y-99143333D02*
G01*
X83833652Y-99430730D01*
X83621501Y-99821636D01*
X83337629Y-100155242D01*
X83031887Y-100362749D01*
X82888775Y-100398134D01*
X82586696Y-100434386D01*
X82228856Y-100450913D01*
X81818009Y-100419464D01*
X81304643Y-100247573D01*
X80917403Y-99938396D01*
X80671580Y-99505751D01*
X80600584Y-99073682D01*
X81351725Y-99073682D01*
X81445241Y-99305120D01*
X81628706Y-99551444D01*
X81909752Y-99746510D01*
X82278629Y-99822848D01*
X82640108Y-99708923D01*
X82972577Y-99407054D01*
X83117813Y-99132962D01*
X83142266Y-98792255D01*
X83028350Y-98474357D01*
X82806131Y-98212589D01*
X82505690Y-98040272D01*
X82157099Y-97990730D01*
X81790433Y-98097281D01*
X81715889Y-98146082D01*
X81497504Y-98406602D01*
X81362720Y-98745623D01*
X81351725Y-99073682D01*
X80600584Y-99073682D01*
X80582471Y-98963453D01*
X80641649Y-98422610D01*
X80853923Y-97955060D01*
X81228314Y-97585262D01*
X81452909Y-97466693D01*
X81901949Y-97357160D01*
X82402334Y-97341899D01*
X82879886Y-97420619D01*
X83260427Y-97593044D01*
X83411624Y-97718576D01*
X83722892Y-98134169D01*
X83900045Y-98630912D01*
X83904884Y-98792255D01*
X83915411Y-99143333D01*
G37*
G36*
X77168753Y-94254827D02*
G01*
X74018366Y-94254827D01*
X74018366Y-85394363D01*
X77168753Y-85394363D01*
X77168753Y-94254827D01*
G37*
G36*
X102076505Y-98488160D02*
G01*
X103356350Y-98488160D01*
X103356350Y-97306766D01*
X104143949Y-97306766D01*
X104143949Y-100457153D01*
X103356350Y-100457153D01*
X103356350Y-99177308D01*
X102076505Y-99177308D01*
X102076505Y-100457153D01*
X101288909Y-100457153D01*
X101288909Y-97306766D01*
X102076505Y-97306766D01*
X102076505Y-98488160D01*
G37*
G36*
X130601771Y-86290865D02*
G01*
X130626893Y-86619962D01*
X130621724Y-86758991D01*
X130569113Y-87011588D01*
X130437050Y-87278084D01*
X130197833Y-87623261D01*
X129951776Y-87939527D01*
X129701003Y-88236734D01*
X129508685Y-88438850D01*
X129476906Y-88468619D01*
X129314678Y-88644179D01*
X129248600Y-88758809D01*
X129317759Y-88781582D01*
X129554759Y-88804949D01*
X129930080Y-88823483D01*
X130412198Y-88835696D01*
X130969592Y-88840100D01*
X132690584Y-88840100D01*
X132749843Y-89076209D01*
X132778016Y-89255438D01*
X132776333Y-89543846D01*
X132743561Y-89775371D01*
X130577669Y-89824595D01*
X130306958Y-89831354D01*
X129690965Y-89851448D01*
X129150659Y-89875541D01*
X128716340Y-89901914D01*
X128418302Y-89928848D01*
X128286842Y-89954624D01*
X128286473Y-89954864D01*
X128155748Y-90104717D01*
X127995338Y-90372308D01*
X127838981Y-90689261D01*
X127720424Y-90987200D01*
X127673405Y-91197740D01*
X127682765Y-91281509D01*
X127735121Y-91363598D01*
X127856516Y-91423049D01*
X128072528Y-91464317D01*
X128408720Y-91491854D01*
X128890670Y-91510118D01*
X129543947Y-91523561D01*
X130971467Y-91547462D01*
X130971467Y-92433509D01*
X129304949Y-92460581D01*
X128582354Y-92479280D01*
X128028275Y-92509775D01*
X127665938Y-92551544D01*
X127497770Y-92604389D01*
X127449818Y-92660417D01*
X127392647Y-92872760D01*
X127399802Y-93235883D01*
X127421468Y-93446819D01*
X127497353Y-93767237D01*
X127647644Y-93952313D01*
X127912442Y-94037420D01*
X128331854Y-94057928D01*
X128511542Y-94059992D01*
X128921735Y-94094687D01*
X129177869Y-94184306D01*
X129309716Y-94344470D01*
X129347048Y-94590809D01*
X129342122Y-94710800D01*
X129265325Y-94956029D01*
X129067664Y-95094503D01*
X128713487Y-95158151D01*
X128638556Y-95166488D01*
X128403941Y-95224655D01*
X128290487Y-95306069D01*
X128292350Y-95318267D01*
X128381282Y-95448167D01*
X128587733Y-95694566D01*
X128894861Y-96038858D01*
X129285821Y-96462434D01*
X129743771Y-96946685D01*
X130251869Y-97473005D01*
X130305344Y-97527926D01*
X130838786Y-98082806D01*
X131343623Y-98619929D01*
X131797784Y-99114944D01*
X132179207Y-99543497D01*
X132465827Y-99881231D01*
X132635576Y-100103798D01*
X132661478Y-100143134D01*
X133105331Y-100936595D01*
X133365731Y-101694053D01*
X133445594Y-102441386D01*
X133347833Y-103204478D01*
X133075361Y-104009207D01*
X132988649Y-104199050D01*
X132875069Y-104410247D01*
X132805274Y-104491544D01*
X132802841Y-104491103D01*
X132717635Y-104403617D01*
X132563081Y-104193947D01*
X132370820Y-103904828D01*
X132251528Y-103737854D01*
X131944772Y-103373072D01*
X131514659Y-102910811D01*
X130978253Y-102369143D01*
X130352603Y-101766143D01*
X129731840Y-101178167D01*
X128887103Y-100369901D01*
X128167301Y-99667955D01*
X127559105Y-99057302D01*
X127049183Y-98522906D01*
X126624209Y-98049734D01*
X126270848Y-97622759D01*
X125975774Y-97226942D01*
X125725655Y-96847256D01*
X125507165Y-96468668D01*
X125306969Y-96076145D01*
X125194421Y-95831738D01*
X124897196Y-94971479D01*
X124773950Y-94132766D01*
X124817654Y-93275348D01*
X124924559Y-92693471D01*
X125149379Y-91934972D01*
X125476811Y-91202315D01*
X125919650Y-90477659D01*
X126490685Y-89743163D01*
X127202714Y-88980983D01*
X128068529Y-88173284D01*
X129100925Y-87302222D01*
X129128024Y-87280211D01*
X129516854Y-86959790D01*
X129861272Y-86667980D01*
X130124774Y-86436182D01*
X130270865Y-86295791D01*
X130385210Y-86186246D01*
X130522940Y-86147867D01*
X130601771Y-86290865D01*
G37*
G36*
X107198687Y-87732542D02*
G01*
X107373206Y-88232027D01*
X107589803Y-88850336D01*
X107781728Y-89396399D01*
X107938958Y-89841788D01*
X108051479Y-90158078D01*
X108109277Y-90316844D01*
X108135047Y-90362267D01*
X108178895Y-90362816D01*
X108240392Y-90279659D01*
X108326651Y-90095513D01*
X108444791Y-89793089D01*
X108601925Y-89355098D01*
X108805172Y-88764257D01*
X109061645Y-88003277D01*
X109919453Y-85443587D01*
X111412709Y-85416410D01*
X111686483Y-85412231D01*
X112241534Y-85411565D01*
X112620230Y-85425572D01*
X112836923Y-85455068D01*
X112905962Y-85500863D01*
X112879259Y-85596560D01*
X112792376Y-85861844D01*
X112651580Y-86276567D01*
X112463393Y-86821928D01*
X112234349Y-87479123D01*
X111970967Y-88229345D01*
X111679781Y-89053793D01*
X111367316Y-89933657D01*
X109828667Y-94254827D01*
X108290765Y-94254062D01*
X106752863Y-94253300D01*
X105974987Y-92063558D01*
X105835436Y-91672364D01*
X105624326Y-91087163D01*
X105438761Y-90580718D01*
X105288677Y-90179783D01*
X105184010Y-89911106D01*
X105134696Y-89801435D01*
X105104801Y-89835677D01*
X105016643Y-90026870D01*
X104882072Y-90362399D01*
X104710427Y-90817955D01*
X104511044Y-91369238D01*
X104293256Y-91991939D01*
X103514234Y-94254827D01*
X100438394Y-94254827D01*
X98891720Y-89898431D01*
X98594846Y-89060672D01*
X98302262Y-88231709D01*
X98037071Y-87476966D01*
X97805729Y-86814989D01*
X97614692Y-86264312D01*
X97470419Y-85843478D01*
X97379363Y-85571027D01*
X97347986Y-85465496D01*
X97361378Y-85455308D01*
X97518491Y-85432352D01*
X97824359Y-85417364D01*
X98243843Y-85411592D01*
X98741804Y-85416272D01*
X100132682Y-85443587D01*
X101026382Y-88028324D01*
X101920082Y-90613058D01*
X103700924Y-85394840D01*
X105041792Y-85394600D01*
X106382660Y-85394363D01*
X107198687Y-87732542D01*
G37*
G36*
X130101908Y-79552178D02*
G01*
X130193927Y-79746986D01*
X130430291Y-80107817D01*
X130789013Y-80553266D01*
X131276735Y-81090545D01*
X131900105Y-81726863D01*
X132665774Y-82469435D01*
X133580381Y-83325467D01*
X133855211Y-83580626D01*
X134832629Y-84517934D01*
X135657947Y-85366001D01*
X136341065Y-86139911D01*
X136891883Y-86854748D01*
X137320301Y-87525593D01*
X137636222Y-88167533D01*
X137849543Y-88795643D01*
X137970167Y-89425010D01*
X138007991Y-90070718D01*
X138005969Y-90233684D01*
X137934053Y-91028795D01*
X137751761Y-91793333D01*
X137449043Y-92542832D01*
X137015846Y-93292817D01*
X136442123Y-94058822D01*
X135717821Y-94856375D01*
X134832890Y-95701013D01*
X133777280Y-96608258D01*
X133508864Y-96830963D01*
X133113602Y-97164137D01*
X132786341Y-97446404D01*
X132555302Y-97653290D01*
X132448715Y-97760321D01*
X132437900Y-97775189D01*
X132312230Y-97886492D01*
X132220076Y-97818497D01*
X132148163Y-97562462D01*
X132139970Y-97260959D01*
X132258947Y-96875135D01*
X132527972Y-96437726D01*
X132958010Y-95926580D01*
X133015088Y-95864291D01*
X133252376Y-95589917D01*
X133419026Y-95372003D01*
X133481933Y-95253101D01*
X133475894Y-95240276D01*
X133336475Y-95196257D01*
X133010144Y-95161475D01*
X132493634Y-95135672D01*
X131783678Y-95118587D01*
X130085420Y-95091650D01*
X130054457Y-94715591D01*
X130045391Y-94596794D01*
X130044950Y-94419350D01*
X130084253Y-94285886D01*
X130185755Y-94190135D01*
X130371899Y-94125839D01*
X130665143Y-94086734D01*
X131087933Y-94066556D01*
X131662724Y-94059041D01*
X132411959Y-94057928D01*
X134566715Y-94057928D01*
X134878895Y-93424865D01*
X134982908Y-93210374D01*
X135092738Y-92944862D01*
X135121478Y-92753333D01*
X135049826Y-92623712D01*
X134858483Y-92543918D01*
X134528150Y-92501876D01*
X134039522Y-92485508D01*
X133373303Y-92482733D01*
X131812040Y-92482733D01*
X131750267Y-92236610D01*
X131725712Y-92041355D01*
X131750267Y-91744361D01*
X131812040Y-91498238D01*
X133464992Y-91498238D01*
X133894763Y-91497392D01*
X134472659Y-91488452D01*
X134891243Y-91462493D01*
X135174059Y-91410752D01*
X135344648Y-91324460D01*
X135426545Y-91194845D01*
X135443294Y-91013138D01*
X135418433Y-90770573D01*
X135362189Y-90421187D01*
X135271223Y-90147785D01*
X135113705Y-89998277D01*
X134846333Y-89935691D01*
X134425793Y-89923043D01*
X134112587Y-89916377D01*
X133775450Y-89870303D01*
X133581812Y-89761232D01*
X133500464Y-89566982D01*
X133500191Y-89265380D01*
X133509062Y-89166986D01*
X133553246Y-88974428D01*
X133671410Y-88891994D01*
X133924955Y-88861265D01*
X134063552Y-88850702D01*
X134358287Y-88812434D01*
X134488955Y-88744937D01*
X134480168Y-88623170D01*
X134356532Y-88422095D01*
X134274104Y-88318814D01*
X134056886Y-88073111D01*
X133738847Y-87727997D01*
X133341839Y-87306818D01*
X132887702Y-86832917D01*
X132398285Y-86329634D01*
X131988551Y-85910414D01*
X131441942Y-85345514D01*
X131006225Y-84884171D01*
X130663679Y-84504857D01*
X130396586Y-84186038D01*
X130187231Y-83906180D01*
X130017890Y-83643752D01*
X129870851Y-83377223D01*
X129728390Y-83085056D01*
X129602852Y-82792382D01*
X129395165Y-82033610D01*
X129372392Y-81283364D01*
X129531869Y-80506622D01*
X129619049Y-80247230D01*
X129768839Y-79882250D01*
X129909704Y-79627238D01*
X130025957Y-79508456D01*
X130101908Y-79552178D01*
G37*
G36*
X73132319Y-100457153D02*
G01*
X72443174Y-100457153D01*
X72443174Y-97306766D01*
X73132319Y-97306766D01*
X73132319Y-100457153D01*
G37*
%TD*%
D13*
%TO.C,U1*%
X61250000Y-45920000D03*
D14*
X61250000Y-48460000D03*
X61250000Y-51000000D03*
X61250000Y-53540000D03*
X61250000Y-56080000D03*
X61250000Y-58620000D03*
X61250000Y-61160000D03*
X61250000Y-63700000D03*
X61250000Y-66240000D03*
X61250000Y-68780000D03*
X61250000Y-71320000D03*
X61478600Y-73860000D03*
X76490000Y-73860000D03*
X76490000Y-71320000D03*
X76490000Y-68780000D03*
X76490000Y-66240000D03*
X76490000Y-63700000D03*
X76490000Y-61160000D03*
X76490000Y-58620000D03*
X76490000Y-56080000D03*
X76490000Y-53540000D03*
X76490000Y-51000000D03*
X76490000Y-48460000D03*
X76490000Y-45920000D03*
X63790000Y-73860000D03*
X66330000Y-73860000D03*
X68870000Y-73860000D03*
X71410000Y-73860000D03*
X73950000Y-73860000D03*
%TD*%
M02*
